<mxfile host="app.diagrams.net" modified="2021-02-02T07:50:54.466Z" agent="5.0 (Windows NT 10.0; Win64; x64) AppleWebKit/537.36 (KHTML, like Gecko) Chrome/88.0.4324.104 Safari/537.36" etag="kIe8iTTImUyH8dz4Hoe7" version="14.2.9" type="github">
  <diagram id="HrJ3EAjQMZ0ei7XoC1Lj" name="Page-1">
    <mxGraphModel dx="942" dy="614" grid="1" gridSize="10" guides="1" tooltips="1" connect="1" arrows="1" fold="1" page="1" pageScale="1" pageWidth="827" pageHeight="1169" math="0" shadow="0">
      <root>
        <mxCell id="0" />
        <mxCell id="1" parent="0" />
        <mxCell id="r3d8gPIPvbpH-zj6DeGr-2" value="" style="verticalLabelPosition=bottom;verticalAlign=top;html=1;shadow=0;dashed=0;strokeWidth=1;shape=mxgraph.android.phone2;strokeColor=#c0c0c0;" vertex="1" parent="1">
          <mxGeometry x="289.38" width="240.62" height="490" as="geometry" />
        </mxCell>
        <mxCell id="r3d8gPIPvbpH-zj6DeGr-3" value="" style="strokeWidth=1;html=1;shadow=0;dashed=0;shape=mxgraph.android.rrect;rSize=0;strokeColor=#eeeeee;fillColor=#ffffff;gradientColor=none;" vertex="1" parent="1">
          <mxGeometry x="299.69" y="50" width="220.31" height="390" as="geometry" />
        </mxCell>
        <mxCell id="r3d8gPIPvbpH-zj6DeGr-4" value="&lt;font style=&quot;font-size: 12px&quot;&gt;Roma&lt;br&gt;&lt;br&gt;parcheggio termini&lt;br&gt;Via Giuseppe Garibaldi n°6&lt;br&gt;distanza : 600m&lt;br&gt;tariffa oraria : 1,50€ l&#39;ora&amp;nbsp;&lt;br&gt;&lt;br&gt;&lt;/font&gt;" style="strokeColor=inherit;fillColor=inherit;gradientColor=inherit;strokeWidth=1;html=1;shadow=0;dashed=0;shape=mxgraph.android.rrect;rSize=0;align=left;spacingLeft=10;fontSize=8;fontColor=#333333;" vertex="1" parent="r3d8gPIPvbpH-zj6DeGr-3">
          <mxGeometry y="11.14285714285714" width="217.71811764705885" height="86.35714285714286" as="geometry" />
        </mxCell>
        <mxCell id="r3d8gPIPvbpH-zj6DeGr-5" value="&lt;font style=&quot;font-size: 12px&quot;&gt;Parcheggio Colosseo&lt;br&gt;Via Cavour n°15&lt;br&gt;distanza : 450m&lt;br&gt;tariffa oraria : 2,00€ l&#39;ora&lt;br&gt;&lt;/font&gt;" style="strokeColor=inherit;fillColor=inherit;gradientColor=inherit;strokeWidth=1;html=1;shadow=0;dashed=0;shape=mxgraph.android.rrect;rSize=0;align=left;spacingLeft=10;fontSize=8;fontColor=#333333;" vertex="1" parent="r3d8gPIPvbpH-zj6DeGr-3">
          <mxGeometry y="97.49999999999997" width="220.31" height="97.49999999999997" as="geometry" />
        </mxCell>
        <mxCell id="r3d8gPIPvbpH-zj6DeGr-6" value="&lt;font style=&quot;font-size: 14px&quot;&gt;parcheggio Appio&lt;br&gt;&lt;br&gt;Via Faleria n°24&lt;br&gt;&lt;br&gt;distanza : 750m&lt;br&gt;&lt;br&gt;&lt;/font&gt;" style="strokeColor=inherit;fillColor=inherit;gradientColor=inherit;strokeWidth=1;html=1;shadow=0;dashed=0;shape=mxgraph.android.rrect;rSize=0;align=left;spacingLeft=10;fontSize=8;fontColor=#333333;" vertex="1" parent="r3d8gPIPvbpH-zj6DeGr-3">
          <mxGeometry y="194.99999999999994" width="220.31" height="97.49999999999997" as="geometry" />
        </mxCell>
        <mxCell id="r3d8gPIPvbpH-zj6DeGr-7" value="&lt;font style=&quot;font-size: 14px&quot;&gt;&lt;br&gt;&lt;/font&gt;" style="strokeColor=inherit;fillColor=inherit;gradientColor=inherit;strokeWidth=1;html=1;shadow=0;dashed=0;shape=mxgraph.android.rrect;rSize=0;align=left;spacingLeft=10;fontSize=8;fontColor=#333333;" vertex="1" parent="r3d8gPIPvbpH-zj6DeGr-3">
          <mxGeometry y="292.5" width="220.31" height="97.49999999999997" as="geometry" />
        </mxCell>
        <mxCell id="r3d8gPIPvbpH-zj6DeGr-9" value="" style="html=1;verticalLabelPosition=bottom;labelBackgroundColor=#ffffff;verticalAlign=top;shadow=0;dashed=0;strokeWidth=2;shape=mxgraph.ios7.misc.right;strokeColor=#0080f0;" vertex="1" parent="r3d8gPIPvbpH-zj6DeGr-3">
          <mxGeometry x="205.11620689655174" y="74.68085106382979" width="12.155034482758621" height="18.25531914893617" as="geometry" />
        </mxCell>
        <mxCell id="r3d8gPIPvbpH-zj6DeGr-13" value="" style="html=1;verticalLabelPosition=bottom;labelBackgroundColor=#ffffff;verticalAlign=top;shadow=0;dashed=0;strokeWidth=2;shape=mxgraph.ios7.misc.right;strokeColor=#0080f0;" vertex="1" parent="r3d8gPIPvbpH-zj6DeGr-3">
          <mxGeometry x="205.11620689655174" y="174.2553191489362" width="12.155034482758621" height="18.25531914893617" as="geometry" />
        </mxCell>
        <mxCell id="r3d8gPIPvbpH-zj6DeGr-19" value="è possibile pagare la tariffa oraria&lt;br&gt;&amp;nbsp;tramite il nostro&lt;br&gt;&amp;nbsp;servizio cliccando il pulsante" style="text;html=1;align=center;verticalAlign=middle;resizable=0;points=[];autosize=1;" vertex="1" parent="1">
          <mxGeometry x="595" y="125" width="190" height="50" as="geometry" />
        </mxCell>
        <mxCell id="r3d8gPIPvbpH-zj6DeGr-20" value="" style="endArrow=classic;html=1;" edge="1" parent="1">
          <mxGeometry width="50" height="50" relative="1" as="geometry">
            <mxPoint x="520" y="135" as="sourcePoint" />
            <mxPoint x="590" y="140" as="targetPoint" />
          </mxGeometry>
        </mxCell>
      </root>
    </mxGraphModel>
  </diagram>
</mxfile>
